<?xml version="1.0" encoding="UTF-8" standalone="no"?>
<!-- Created with Inkscape (http://www.inkscape.org/) -->

<svg
   xmlns:dc="http://purl.org/dc/elements/1.1/"
   xmlns:cc="http://creativecommons.org/ns#"
   xmlns:rdf="http://www.w3.org/1999/02/22-rdf-syntax-ns#"
   xmlns:svg="http://www.w3.org/2000/svg"
   xmlns="http://www.w3.org/2000/svg"
   xmlns:sodipodi="http://sodipodi.sourceforge.net/DTD/sodipodi-0.dtd"
   xmlns:inkscape="http://www.inkscape.org/namespaces/inkscape"
   width="128"
   height="128"
   viewBox="0 0 128 128"
   id="svg2"
   version="1.1"
   inkscape:version="0.91 r13725"
   sodipodi:docname="image-model-icon.svg"
   inkscape:export-filename="/mnt/Data/Projetos/Faculdade/IC/Aplicativo/libcream/data/icons/image-model-icon.png"
   inkscape:export-xdpi="90"
   inkscape:export-ydpi="90">
  <defs
     id="defs4" />
  <sodipodi:namedview
     id="base"
     pagecolor="#ffffff"
     bordercolor="#666666"
     borderopacity="1.0"
     inkscape:pageopacity="0.0"
     inkscape:pageshadow="2"
     inkscape:zoom="2.0976562"
     inkscape:cx="-31.479708"
     inkscape:cy="24.777965"
     inkscape:document-units="px"
     inkscape:current-layer="layer1"
     showgrid="false"
     units="px"
     inkscape:window-width="1366"
     inkscape:window-height="704"
     inkscape:window-x="0"
     inkscape:window-y="27"
     inkscape:window-maximized="1" />
  <metadata
     id="metadata7">
    <rdf:RDF>
      <cc:Work
         rdf:about="">
        <dc:format>image/svg+xml</dc:format>
        <dc:type
           rdf:resource="http://purl.org/dc/dcmitype/StillImage" />
        <dc:title></dc:title>
      </cc:Work>
    </rdf:RDF>
  </metadata>
  <g
     inkscape:label="Camada 1"
     inkscape:groupmode="layer"
     id="layer1"
     transform="translate(0,-924.3622)">
    <g
       transform="matrix(3.4362416,0,0,3.4362416,4.4570631,992.81858)"
       id="g3535"
       style="fill:#303030;fill-opacity:1">
      <g
         id="g3537"
         inkscape:label="status"
         style="display:inline;fill:#303030;fill-opacity:1"
         transform="translate(-621.03145,-301.03125)" />
      <g
         id="g3539"
         inkscape:label="devices"
         style="display:inline;fill:#303030;fill-opacity:1"
         transform="translate(-621.03145,-301.03125)" />
      <g
         id="g3541"
         inkscape:label="apps"
         transform="translate(-621.03145,-301.03125)"
         style="fill:#303030;fill-opacity:1" />
      <g
         id="g3543"
         inkscape:label="places"
         style="display:inline;fill:#303030;fill-opacity:1"
         transform="translate(-621.03145,-301.03125)" />
      <g
         id="g3545"
         inkscape:label="mimetypes"
         transform="translate(-621.03145,-301.03125)"
         style="fill:#303030;fill-opacity:1">
        <path
           inkscape:connector-curvature="0"
           d="m 622.0625,302.0625 0,1 0,11.96875 0,1 1,0 11.96875,0 1,0 0,-1 0,-11.96875 0,-1 -1,0 -11.96875,0 -1,0 z m 2,2 9.96875,0 0,9.96875 -9.96875,0 0,-9.96875 z"
           id="path3547"
           style="color:#000000;font-style:normal;font-variant:normal;font-weight:normal;font-stretch:normal;font-size:medium;line-height:normal;font-family:Sans;-inkscape-font-specification:Sans;text-indent:0;text-align:start;text-decoration:none;text-decoration-line:none;letter-spacing:normal;word-spacing:normal;text-transform:none;direction:ltr;block-progression:tb;writing-mode:lr-tb;baseline-shift:baseline;text-anchor:start;display:inline;overflow:visible;visibility:visible;fill:#303030;fill-opacity:1;stroke:none;stroke-width:2;marker:none;enable-background:new" />
        <path
           inkscape:connector-curvature="0"
           d="m 630.5625,309.34375 c -0.46643,-0.0643 -1.04585,-0.1297 -1.53125,0.25 -0.40319,0.3154 -0.7654,0.72703 -1.09375,1.03125 -0.32835,0.30422 -0.65996,0.4375 -0.59375,0.4375 l -3.84375,0 0,1 3.84375,0 c 0.58207,0 0.88604,-0.38153 1.25,-0.71875 0.36396,-0.33722 0.75079,-0.69367 1.0625,-0.9375 0.10629,-0.0831 0.40859,-0.14514 0.78125,-0.0937 0.37266,0.0514 0.69959,0.1875 1.09375,0.1875 0.14648,0 0.20407,0.0328 0.3125,0.125 0.10843,0.0922 0.24045,0.24389 0.375,0.4375 0.13455,0.19361 0.28193,0.42119 0.5,0.625 0.21807,0.20381 0.56155,0.375 0.9375,0.375 l 0.84375,0 0,-1 -0.84375,0 c -0.0991,0 -0.15147,-0.002 -0.25,-0.0937 -0.0985,-0.0921 -0.23537,-0.26783 -0.375,-0.46875 -0.13963,-0.20092 -0.29184,-0.42134 -0.53125,-0.625 -0.23941,-0.20366 -0.57764,-0.375 -0.96875,-0.375 -0.0328,0 -0.50232,-0.0919 -0.96875,-0.15625 z"
           id="path3549"
           style="color:#000000;font-style:normal;font-variant:normal;font-weight:normal;font-stretch:normal;font-size:medium;line-height:normal;font-family:Sans;-inkscape-font-specification:Sans;text-indent:0;text-align:start;text-decoration:none;text-decoration-line:none;letter-spacing:normal;word-spacing:normal;text-transform:none;direction:ltr;block-progression:tb;writing-mode:lr-tb;baseline-shift:baseline;text-anchor:start;display:inline;overflow:visible;visibility:visible;fill:#303030;fill-opacity:1;stroke:none;stroke-width:1;marker:none;enable-background:accumulate" />
        <path
           inkscape:connector-curvature="0"
           d="m 626.47137,304.91487 c -0.86024,0 -1.55632,0.72246 -1.55632,1.58269 0,0.86024 0.69608,1.55632 1.55632,1.55632 0.86024,0 1.5827,-0.69608 1.5827,-1.55632 0,-0.86023 -0.72246,-1.58269 -1.5827,-1.58269 z m 0,1.00237 c 0.3198,0 0.58032,0.26053 0.58032,0.58032 0,0.3198 -0.26052,0.55395 -0.58032,0.55395 -0.3198,0 -0.55394,-0.23415 -0.55394,-0.55395 0,-0.31979 0.23414,-0.58032 0.55394,-0.58032 z"
           id="path3551"
           style="color:#000000;font-style:normal;font-variant:normal;font-weight:normal;font-stretch:normal;font-size:medium;line-height:normal;font-family:Sans;-inkscape-font-specification:Sans;text-indent:0;text-align:start;text-decoration:none;text-decoration-line:none;letter-spacing:normal;word-spacing:normal;text-transform:none;direction:ltr;block-progression:tb;writing-mode:lr-tb;baseline-shift:baseline;text-anchor:start;display:inline;overflow:visible;visibility:visible;fill:#303030;fill-opacity:1;stroke:none;stroke-width:1.18468678;marker:none;enable-background:accumulate" />
      </g>
      <g
         id="g3553"
         inkscape:label="emblems"
         style="display:inline;fill:#303030;fill-opacity:1"
         transform="translate(-621.03145,-301.03125)" />
      <g
         id="g3555"
         inkscape:label="emotes"
         style="display:inline;fill:#303030;fill-opacity:1"
         transform="translate(-621.03145,-301.03125)" />
      <g
         id="g3557"
         inkscape:label="categories"
         style="display:inline;fill:#303030;fill-opacity:1"
         transform="translate(-621.03145,-301.03125)" />
      <g
         id="g3559"
         inkscape:label="actions"
         style="display:inline;fill:#303030;fill-opacity:1"
         transform="translate(-621.03145,-301.03125)" />
    </g>
    <g
       id="g3521"
       transform="matrix(3.4362416,0,0,3.4362416,4.4570631,928.81858)"
       style="fill:#72dc72;fill-opacity:1">
      <g
         transform="translate(-621.03145,-301.03125)"
         style="display:inline;fill:#72dc72;fill-opacity:1"
         inkscape:label="status"
         id="layer9" />
      <g
         transform="translate(-621.03145,-301.03125)"
         style="display:inline;fill:#72dc72;fill-opacity:1"
         inkscape:label="devices"
         id="layer10" />
      <g
         transform="translate(-621.03145,-301.03125)"
         inkscape:label="apps"
         id="layer11"
         style="fill:#72dc72;fill-opacity:1" />
      <g
         transform="translate(-621.03145,-301.03125)"
         style="display:inline;fill:#72dc72;fill-opacity:1"
         inkscape:label="places"
         id="layer13" />
      <g
         transform="translate(-621.03145,-301.03125)"
         inkscape:label="mimetypes"
         id="layer14"
         style="fill:#72dc72;fill-opacity:1">
        <path
           style="color:#000000;font-style:normal;font-variant:normal;font-weight:normal;font-stretch:normal;font-size:medium;line-height:normal;font-family:Sans;-inkscape-font-specification:Sans;text-indent:0;text-align:start;text-decoration:none;text-decoration-line:none;letter-spacing:normal;word-spacing:normal;text-transform:none;direction:ltr;block-progression:tb;writing-mode:lr-tb;baseline-shift:baseline;text-anchor:start;display:inline;overflow:visible;visibility:visible;fill:#72dc72;fill-opacity:1;stroke:none;stroke-width:2;marker:none;enable-background:new"
           id="rect35282"
           d="m 622.0625,302.0625 0,1 0,11.96875 0,1 1,0 11.96875,0 1,0 0,-1 0,-11.96875 0,-1 -1,0 -11.96875,0 -1,0 z m 2,2 9.96875,0 0,9.96875 -9.96875,0 0,-9.96875 z"
           inkscape:connector-curvature="0" />
        <path
           style="color:#000000;font-style:normal;font-variant:normal;font-weight:normal;font-stretch:normal;font-size:medium;line-height:normal;font-family:Sans;-inkscape-font-specification:Sans;text-indent:0;text-align:start;text-decoration:none;text-decoration-line:none;letter-spacing:normal;word-spacing:normal;text-transform:none;direction:ltr;block-progression:tb;writing-mode:lr-tb;baseline-shift:baseline;text-anchor:start;display:inline;overflow:visible;visibility:visible;fill:#72dc72;fill-opacity:1;stroke:none;stroke-width:1;marker:none;enable-background:accumulate"
           id="path35302"
           d="m 630.5625,309.34375 c -0.46643,-0.0643 -1.04585,-0.1297 -1.53125,0.25 -0.40319,0.3154 -0.7654,0.72703 -1.09375,1.03125 -0.32835,0.30422 -0.65996,0.4375 -0.59375,0.4375 l -3.84375,0 0,1 3.84375,0 c 0.58207,0 0.88604,-0.38153 1.25,-0.71875 0.36396,-0.33722 0.75079,-0.69367 1.0625,-0.9375 0.10629,-0.0831 0.40859,-0.14514 0.78125,-0.0937 0.37266,0.0514 0.69959,0.1875 1.09375,0.1875 0.14648,0 0.20407,0.0328 0.3125,0.125 0.10843,0.0922 0.24045,0.24389 0.375,0.4375 0.13455,0.19361 0.28193,0.42119 0.5,0.625 0.21807,0.20381 0.56155,0.375 0.9375,0.375 l 0.84375,0 0,-1 -0.84375,0 c -0.0991,0 -0.15147,-0.002 -0.25,-0.0937 -0.0985,-0.0921 -0.23537,-0.26783 -0.375,-0.46875 -0.13963,-0.20092 -0.29184,-0.42134 -0.53125,-0.625 -0.23941,-0.20366 -0.57764,-0.375 -0.96875,-0.375 -0.0328,0 -0.50232,-0.0919 -0.96875,-0.15625 z"
           inkscape:connector-curvature="0" />
        <path
           style="color:#000000;font-style:normal;font-variant:normal;font-weight:normal;font-stretch:normal;font-size:medium;line-height:normal;font-family:Sans;-inkscape-font-specification:Sans;text-indent:0;text-align:start;text-decoration:none;text-decoration-line:none;letter-spacing:normal;word-spacing:normal;text-transform:none;direction:ltr;block-progression:tb;writing-mode:lr-tb;baseline-shift:baseline;text-anchor:start;display:inline;overflow:visible;visibility:visible;fill:#72dc72;fill-opacity:1;stroke:none;stroke-width:1.18468678;marker:none;enable-background:accumulate"
           id="path35306"
           d="m 626.47137,304.91487 c -0.86024,0 -1.55632,0.72246 -1.55632,1.58269 0,0.86024 0.69608,1.55632 1.55632,1.55632 0.86024,0 1.5827,-0.69608 1.5827,-1.55632 0,-0.86023 -0.72246,-1.58269 -1.5827,-1.58269 z m 0,1.00237 c 0.3198,0 0.58032,0.26053 0.58032,0.58032 0,0.3198 -0.26052,0.55395 -0.58032,0.55395 -0.3198,0 -0.55394,-0.23415 -0.55394,-0.55395 0,-0.31979 0.23414,-0.58032 0.55394,-0.58032 z"
           inkscape:connector-curvature="0" />
      </g>
      <g
         transform="translate(-621.03145,-301.03125)"
         style="display:inline;fill:#72dc72;fill-opacity:1"
         inkscape:label="emblems"
         id="layer15" />
      <g
         transform="translate(-621.03145,-301.03125)"
         style="display:inline;fill:#72dc72;fill-opacity:1"
         inkscape:label="emotes"
         id="g71291" />
      <g
         transform="translate(-621.03145,-301.03125)"
         style="display:inline;fill:#72dc72;fill-opacity:1"
         inkscape:label="categories"
         id="g4953" />
      <g
         transform="translate(-621.03145,-301.03125)"
         style="display:inline;fill:#72dc72;fill-opacity:1"
         inkscape:label="actions"
         id="layer12" />
    </g>
    <g
       id="g3561"
       transform="matrix(3.4362416,0,0,3.4362416,68.457063,928.81858)"
       style="fill:#7272dc;fill-opacity:1">
      <g
         transform="translate(-621.03145,-301.03125)"
         style="display:inline;fill:#7272dc;fill-opacity:1"
         inkscape:label="status"
         id="g3563" />
      <g
         transform="translate(-621.03145,-301.03125)"
         style="display:inline;fill:#7272dc;fill-opacity:1"
         inkscape:label="devices"
         id="g3565" />
      <g
         transform="translate(-621.03145,-301.03125)"
         inkscape:label="apps"
         id="g3567"
         style="fill:#7272dc;fill-opacity:1" />
      <g
         transform="translate(-621.03145,-301.03125)"
         style="display:inline;fill:#7272dc;fill-opacity:1"
         inkscape:label="places"
         id="g3569" />
      <g
         transform="translate(-621.03145,-301.03125)"
         inkscape:label="mimetypes"
         id="g3571"
         style="fill:#7272dc;fill-opacity:1">
        <path
           style="color:#000000;font-style:normal;font-variant:normal;font-weight:normal;font-stretch:normal;font-size:medium;line-height:normal;font-family:Sans;-inkscape-font-specification:Sans;text-indent:0;text-align:start;text-decoration:none;text-decoration-line:none;letter-spacing:normal;word-spacing:normal;text-transform:none;direction:ltr;block-progression:tb;writing-mode:lr-tb;baseline-shift:baseline;text-anchor:start;display:inline;overflow:visible;visibility:visible;fill:#7272dc;fill-opacity:1;stroke:none;stroke-width:2;marker:none;enable-background:new"
           id="path3573"
           d="m 622.0625,302.0625 0,1 0,11.96875 0,1 1,0 11.96875,0 1,0 0,-1 0,-11.96875 0,-1 -1,0 -11.96875,0 -1,0 z m 2,2 9.96875,0 0,9.96875 -9.96875,0 0,-9.96875 z"
           inkscape:connector-curvature="0" />
        <path
           style="color:#000000;font-style:normal;font-variant:normal;font-weight:normal;font-stretch:normal;font-size:medium;line-height:normal;font-family:Sans;-inkscape-font-specification:Sans;text-indent:0;text-align:start;text-decoration:none;text-decoration-line:none;letter-spacing:normal;word-spacing:normal;text-transform:none;direction:ltr;block-progression:tb;writing-mode:lr-tb;baseline-shift:baseline;text-anchor:start;display:inline;overflow:visible;visibility:visible;fill:#7272dc;fill-opacity:1;stroke:none;stroke-width:1;marker:none;enable-background:accumulate"
           id="path3575"
           d="m 630.5625,309.34375 c -0.46643,-0.0643 -1.04585,-0.1297 -1.53125,0.25 -0.40319,0.3154 -0.7654,0.72703 -1.09375,1.03125 -0.32835,0.30422 -0.65996,0.4375 -0.59375,0.4375 l -3.84375,0 0,1 3.84375,0 c 0.58207,0 0.88604,-0.38153 1.25,-0.71875 0.36396,-0.33722 0.75079,-0.69367 1.0625,-0.9375 0.10629,-0.0831 0.40859,-0.14514 0.78125,-0.0937 0.37266,0.0514 0.69959,0.1875 1.09375,0.1875 0.14648,0 0.20407,0.0328 0.3125,0.125 0.10843,0.0922 0.24045,0.24389 0.375,0.4375 0.13455,0.19361 0.28193,0.42119 0.5,0.625 0.21807,0.20381 0.56155,0.375 0.9375,0.375 l 0.84375,0 0,-1 -0.84375,0 c -0.0991,0 -0.15147,-0.002 -0.25,-0.0937 -0.0985,-0.0921 -0.23537,-0.26783 -0.375,-0.46875 -0.13963,-0.20092 -0.29184,-0.42134 -0.53125,-0.625 -0.23941,-0.20366 -0.57764,-0.375 -0.96875,-0.375 -0.0328,0 -0.50232,-0.0919 -0.96875,-0.15625 z"
           inkscape:connector-curvature="0" />
        <path
           style="color:#000000;font-style:normal;font-variant:normal;font-weight:normal;font-stretch:normal;font-size:medium;line-height:normal;font-family:Sans;-inkscape-font-specification:Sans;text-indent:0;text-align:start;text-decoration:none;text-decoration-line:none;letter-spacing:normal;word-spacing:normal;text-transform:none;direction:ltr;block-progression:tb;writing-mode:lr-tb;baseline-shift:baseline;text-anchor:start;display:inline;overflow:visible;visibility:visible;fill:#7272dc;fill-opacity:1;stroke:none;stroke-width:1.18468678;marker:none;enable-background:accumulate"
           id="path3577"
           d="m 626.47137,304.91487 c -0.86024,0 -1.55632,0.72246 -1.55632,1.58269 0,0.86024 0.69608,1.55632 1.55632,1.55632 0.86024,0 1.5827,-0.69608 1.5827,-1.55632 0,-0.86023 -0.72246,-1.58269 -1.5827,-1.58269 z m 0,1.00237 c 0.3198,0 0.58032,0.26053 0.58032,0.58032 0,0.3198 -0.26052,0.55395 -0.58032,0.55395 -0.3198,0 -0.55394,-0.23415 -0.55394,-0.55395 0,-0.31979 0.23414,-0.58032 0.55394,-0.58032 z"
           inkscape:connector-curvature="0" />
      </g>
      <g
         transform="translate(-621.03145,-301.03125)"
         style="display:inline;fill:#7272dc;fill-opacity:1"
         inkscape:label="emblems"
         id="g3579" />
      <g
         transform="translate(-621.03145,-301.03125)"
         style="display:inline;fill:#7272dc;fill-opacity:1"
         inkscape:label="emotes"
         id="g3581" />
      <g
         transform="translate(-621.03145,-301.03125)"
         style="display:inline;fill:#7272dc;fill-opacity:1"
         inkscape:label="categories"
         id="g3583" />
      <g
         transform="translate(-621.03145,-301.03125)"
         style="display:inline;fill:#7272dc;fill-opacity:1"
         inkscape:label="actions"
         id="g3585" />
    </g>
    <g
       style="fill:#dc7272;fill-opacity:1"
       id="g4387"
       transform="matrix(3.4362416,0,0,3.4362416,68.457063,992.81858)">
      <g
         transform="translate(-621.03145,-301.03125)"
         style="display:inline;fill:#dc7272;fill-opacity:1"
         inkscape:label="status"
         id="g4389" />
      <g
         transform="translate(-621.03145,-301.03125)"
         style="display:inline;fill:#dc7272;fill-opacity:1"
         inkscape:label="devices"
         id="g4391" />
      <g
         style="fill:#dc7272;fill-opacity:1"
         transform="translate(-621.03145,-301.03125)"
         inkscape:label="apps"
         id="g4393" />
      <g
         transform="translate(-621.03145,-301.03125)"
         style="display:inline;fill:#dc7272;fill-opacity:1"
         inkscape:label="places"
         id="g4395" />
      <g
         style="fill:#dc7272;fill-opacity:1"
         transform="translate(-621.03145,-301.03125)"
         inkscape:label="mimetypes"
         id="g4397">
        <path
           style="color:#000000;font-style:normal;font-variant:normal;font-weight:normal;font-stretch:normal;font-size:medium;line-height:normal;font-family:Sans;-inkscape-font-specification:Sans;text-indent:0;text-align:start;text-decoration:none;text-decoration-line:none;letter-spacing:normal;word-spacing:normal;text-transform:none;direction:ltr;block-progression:tb;writing-mode:lr-tb;baseline-shift:baseline;text-anchor:start;display:inline;overflow:visible;visibility:visible;fill:#dc7272;fill-opacity:1;stroke:none;stroke-width:2;marker:none;enable-background:new"
           id="path4399"
           d="m 622.0625,302.0625 0,1 0,11.96875 0,1 1,0 11.96875,0 1,0 0,-1 0,-11.96875 0,-1 -1,0 -11.96875,0 -1,0 z m 2,2 9.96875,0 0,9.96875 -9.96875,0 0,-9.96875 z"
           inkscape:connector-curvature="0" />
        <path
           style="color:#000000;font-style:normal;font-variant:normal;font-weight:normal;font-stretch:normal;font-size:medium;line-height:normal;font-family:Sans;-inkscape-font-specification:Sans;text-indent:0;text-align:start;text-decoration:none;text-decoration-line:none;letter-spacing:normal;word-spacing:normal;text-transform:none;direction:ltr;block-progression:tb;writing-mode:lr-tb;baseline-shift:baseline;text-anchor:start;display:inline;overflow:visible;visibility:visible;fill:#dc7272;fill-opacity:1;stroke:none;stroke-width:1;marker:none;enable-background:accumulate"
           id="path4401"
           d="m 630.5625,309.34375 c -0.46643,-0.0643 -1.04585,-0.1297 -1.53125,0.25 -0.40319,0.3154 -0.7654,0.72703 -1.09375,1.03125 -0.32835,0.30422 -0.65996,0.4375 -0.59375,0.4375 l -3.84375,0 0,1 3.84375,0 c 0.58207,0 0.88604,-0.38153 1.25,-0.71875 0.36396,-0.33722 0.75079,-0.69367 1.0625,-0.9375 0.10629,-0.0831 0.40859,-0.14514 0.78125,-0.0937 0.37266,0.0514 0.69959,0.1875 1.09375,0.1875 0.14648,0 0.20407,0.0328 0.3125,0.125 0.10843,0.0922 0.24045,0.24389 0.375,0.4375 0.13455,0.19361 0.28193,0.42119 0.5,0.625 0.21807,0.20381 0.56155,0.375 0.9375,0.375 l 0.84375,0 0,-1 -0.84375,0 c -0.0991,0 -0.15147,-0.002 -0.25,-0.0937 -0.0985,-0.0921 -0.23537,-0.26783 -0.375,-0.46875 -0.13963,-0.20092 -0.29184,-0.42134 -0.53125,-0.625 -0.23941,-0.20366 -0.57764,-0.375 -0.96875,-0.375 -0.0328,0 -0.50232,-0.0919 -0.96875,-0.15625 z"
           inkscape:connector-curvature="0" />
        <path
           style="color:#000000;font-style:normal;font-variant:normal;font-weight:normal;font-stretch:normal;font-size:medium;line-height:normal;font-family:Sans;-inkscape-font-specification:Sans;text-indent:0;text-align:start;text-decoration:none;text-decoration-line:none;letter-spacing:normal;word-spacing:normal;text-transform:none;direction:ltr;block-progression:tb;writing-mode:lr-tb;baseline-shift:baseline;text-anchor:start;display:inline;overflow:visible;visibility:visible;fill:#dc7272;fill-opacity:1;stroke:none;stroke-width:1.18468678;marker:none;enable-background:accumulate"
           id="path4403"
           d="m 626.47137,304.91487 c -0.86024,0 -1.55632,0.72246 -1.55632,1.58269 0,0.86024 0.69608,1.55632 1.55632,1.55632 0.86024,0 1.5827,-0.69608 1.5827,-1.55632 0,-0.86023 -0.72246,-1.58269 -1.5827,-1.58269 z m 0,1.00237 c 0.3198,0 0.58032,0.26053 0.58032,0.58032 0,0.3198 -0.26052,0.55395 -0.58032,0.55395 -0.3198,0 -0.55394,-0.23415 -0.55394,-0.55395 0,-0.31979 0.23414,-0.58032 0.55394,-0.58032 z"
           inkscape:connector-curvature="0" />
      </g>
      <g
         transform="translate(-621.03145,-301.03125)"
         style="display:inline;fill:#dc7272;fill-opacity:1"
         inkscape:label="emblems"
         id="g4405" />
      <g
         transform="translate(-621.03145,-301.03125)"
         style="display:inline;fill:#dc7272;fill-opacity:1"
         inkscape:label="emotes"
         id="g4407" />
      <g
         transform="translate(-621.03145,-301.03125)"
         style="display:inline;fill:#dc7272;fill-opacity:1"
         inkscape:label="categories"
         id="g4409" />
      <g
         transform="translate(-621.03145,-301.03125)"
         style="display:inline;fill:#dc7272;fill-opacity:1"
         inkscape:label="actions"
         id="g4411" />
    </g>
  </g>
</svg>
